<?xml version="1.0" standalone="no"?>
<!DOCTYPE svg PUBLIC "-//W3C//DTD SVG 20010904//EN"
 "http://www.w3.org/TR/2001/REC-SVG-20010904/DTD/svg10.dtd">
<svg version="1.0" xmlns="http://www.w3.org/2000/svg"
 width="150.000000pt" height="150.000000pt" viewBox="0 0 150.000000 150.000000"
 preserveAspectRatio="xMidYMid meet">

<g transform="translate(0.000000,150.000000) scale(0.100000,-0.100000)"
fill="white" stroke="none">
<path d="M611 916 c-7 -8 -21 -12 -31 -9 -11 3 -20 1 -21 -3 -4 -49 -15 -64
-49 -65 -33 -1 -130 25 -156 41 -18 11 -26 9 -63 -15 -30 -20 -53 -28 -82 -27
-49 2 -58 -14 -34 -64 14 -29 31 -42 102 -75 47 -22 90 -38 97 -37 6 1 36 -12
67 -30 60 -34 179 -57 179 -33 0 6 11 11 24 11 13 0 27 6 30 13 3 8 11 4 26
-12 18 -21 29 -24 72 -22 27 1 57 6 67 11 42 24 235 101 287 114 33 8 97 29
144 45 64 23 85 35 85 48 0 21 -24 22 -144 9 -73 -8 -74 -8 -68 13 3 13 0 24
-6 26 -14 5 -56 13 -75 14 -7 1 -11 5 -8 10 3 5 -5 12 -18 15 -19 5 -32 -1
-54 -24 -32 -32 -66 -43 -42 -14 11 12 11 18 -1 29 -12 13 -18 13 -42 0 -23
-12 -27 -12 -27 0 0 12 -14 14 -67 12 -38 -2 -78 -9 -91 -16 -20 -11 -26 -9
-50 18 -30 35 -35 37 -51 17z m29 -17 c0 -5 -4 -8 -8 -5 -5 3 -24 -10 -42 -29
-32 -34 -33 -34 -16 -60 21 -32 13 -45 -13 -21 -20 18 -18 48 4 66 8 6 11 18
8 26 -3 9 2 14 15 14 12 0 24 5 27 10 8 13 25 13 25 -1z m220 -18 c0 -5 -7
-14 -15 -21 -31 -26 -13 -28 31 -3 49 28 68 25 39 -7 -26 -29 -12 -36 37 -17
23 9 43 15 45 13 8 -8 -86 -38 -97 -31 -6 4 -8 15 -5 25 6 17 2 17 -37 -5 -30
-17 -48 -35 -56 -59 -13 -34 -74 -91 -86 -79 -3 4 -6 17 -6 30 0 19 4 23 18
19 11 -4 22 1 29 14 15 23 -1 38 -22 20 -10 -8 -15 -8 -20 0 -9 14 -6 17 29
26 21 5 27 4 22 -5 -4 -6 -2 -11 4 -11 7 0 9 8 5 20 -4 11 -2 20 4 20 6 0 11
-7 11 -16 0 -10 10 -2 25 20 14 20 25 39 25 41 0 10 -107 -9 -128 -23 -20 -13
-25 -13 -40 1 -9 8 -26 17 -37 20 -17 4 -17 5 4 6 13 0 30 -7 36 -16 12 -17
14 -17 32 -1 16 15 38 19 131 26 12 1 22 -2 22 -7z m184 -16 c2 -7 -4 -15 -14
-18 -20 -5 -30 9 -23 30 6 14 29 7 37 -12z m-673 -12 c9 -8 20 -13 25 -11 26
7 85 -16 104 -40 l21 -27 -6 28 c-4 20 -2 28 6 25 13 -4 19 -78 7 -78 -4 0
-18 16 -30 35 -21 32 -71 55 -101 47 -5 -1 -20 6 -35 16 -26 19 -26 19 -65 -9
-25 -18 -52 -29 -74 -29 -18 0 -33 -3 -33 -6 0 -22 31 -49 90 -79 74 -37 133
-48 110 -20 -16 20 -2 19 51 -1 29 -12 37 -19 27 -25 -10 -7 -10 -9 0 -9 6 0
12 -4 12 -8 0 -13 -48 -8 -62 6 -6 6 -24 12 -39 12 -45 0 -169 65 -190 100
-11 17 -19 33 -19 35 0 3 19 5 43 5 30 1 53 9 82 29 40 29 46 30 76 4z m759
-12 c0 -5 -12 -14 -27 -19 -24 -9 -25 -11 -7 -11 12 -1 35 -8 50 -17 22 -11
24 -14 8 -12 -11 2 -27 -2 -35 -8 -19 -15 -89 -37 -96 -31 -6 7 57 47 72 47 6
0 3 -5 -5 -10 -13 -8 -13 -10 2 -10 32 0 30 20 -3 27 l-32 6 22 18 21 18 -22
4 c-15 3 -9 5 15 6 20 0 37 -3 37 -8z m-460 -121 c0 -30 29 -82 43 -77 7 2 17
-3 22 -10 9 -11 17 -5 43 31 18 25 36 46 38 46 9 0 -8 -44 -23 -61 -12 -14
-12 -17 3 -23 17 -6 157 43 198 69 11 8 53 21 91 30 39 10 85 24 103 32 19 8
53 21 75 28 l42 14 -65 -4 -65 -4 55 10 c30 5 71 8 90 7 32 -3 26 -6 -55 -36
-49 -18 -119 -40 -155 -49 -36 -8 -81 -23 -100 -34 -68 -36 -196 -81 -235 -84
-36 -3 -44 1 -82 43 -35 37 -43 42 -44 27 -2 -24 -17 68 -18 110 l-1 30 20
-38 c11 -20 20 -46 20 -57z m284 53 c-38 -30 -20 -29 31 2 22 13 45 24 50 24
6 0 -8 -11 -30 -24 -22 -14 -40 -28 -40 -33 0 -23 -49 -63 -104 -85 l-64 -26
34 29 c35 30 56 39 43 18 -4 -6 14 4 40 21 26 18 45 35 43 38 -7 6 -50 -17
-59 -33 -9 -13 -48 -8 -48 7 0 5 9 9 21 9 11 0 30 5 42 12 21 11 21 11 2 19
-12 4 -29 1 -43 -7 -20 -13 -23 -13 -29 1 -8 23 8 36 50 40 19 1 43 7 53 13
32 18 38 0 8 -25z m-557 -5 c10 -8 13 -7 13 4 0 12 9 11 46 -8 25 -13 56 -34
68 -46 12 -13 35 -33 52 -46 27 -22 27 -23 2 -8 -36 21 -45 20 -25 -2 10 -10
15 -22 12 -25 -3 -4 -2 -5 1 -2 9 6 44 -14 44 -25 0 -18 -143 11 -156 32 -5 8
-1 9 12 4 66 -27 76 -29 85 -15 5 9 -1 24 -22 45 -16 16 -26 34 -22 39 5 4 3
5 -3 2 -7 -4 -17 0 -24 8 -6 7 -18 11 -26 8 -7 -3 -28 0 -46 6 -22 8 -34 8
-36 1 -5 -13 -14 -13 -49 1 -27 10 -27 11 -9 25 11 8 16 14 12 14 -4 0 -5 4
-1 10 6 10 49 -3 72 -22z m204 -54 c12 -20 22 -43 22 -50 0 -7 3 -13 6 -12 21
2 31 -4 31 -18 0 -14 -3 -14 -15 -4 -12 10 -15 10 -15 -1 0 -21 -23 6 -27 32
-2 12 -12 32 -23 46 -22 28 -25 43 -11 43 5 0 19 -16 32 -36z m159 -44 c-6
-11 -13 -20 -16 -20 -2 0 0 9 6 20 6 11 13 20 16 20 2 0 0 -9 -6 -20z"/>
<path d="M772 768 c-14 -14 -16 -28 -3 -28 9 0 24 30 18 36 -2 2 -9 -2 -15 -8z"/>
<path d="M640 753 c0 -4 5 -15 10 -23 8 -13 10 -13 10 2 0 9 -4 20 -10 23 -5
3 -10 3 -10 -2z"/>
<path d="M933 784 c-34 -15 -42 -24 -20 -24 6 0 23 9 37 20 29 23 27 23 -17 4z"/>
<path d="M860 765 c-14 -16 -3 -20 19 -6 8 5 9 11 3 15 -5 3 -15 -1 -22 -9z"/>
<path d="M337 766 c-16 -12 -16 -14 -1 -20 19 -7 47 11 38 25 -7 12 -16 11
-37 -5z"/>
<path d="M430 750 c0 -5 5 -10 10 -10 6 0 10 5 10 10 0 6 -4 10 -10 10 -5 0
-10 -4 -10 -10z"/>
<path d="M654 553 c-8 -14 -7 -22 6 -35 9 -10 20 -15 23 -11 4 3 -1 12 -11 20
-16 12 -16 14 2 28 14 11 16 15 5 15 -8 0 -19 -8 -25 -17z"/>
<path d="M702 545 c0 -16 2 -22 5 -12 2 9 2 23 0 30 -3 6 -5 -1 -5 -18z"/>
</g>
</svg>
